<svg width="30" height="30" viewBox="0 0 52 52" fill="none" xmlns="http://www.w3.org/2000/svg">
<path fill-rule="evenodd" clip-rule="evenodd" d="M25.5254 15.0995C25.6767 15.2505 25.7968 15.4298 25.8787 15.6272C25.9607 15.8246 26.0028 16.0363 26.0028 16.25C26.0028 16.4638 25.9607 16.6754 25.8787 16.8728C25.7968 17.0703 25.6767 17.2496 25.5254 17.4005L16.9227 26L25.5254 34.5995C25.6765 34.7506 25.7963 34.93 25.8781 35.1274C25.9599 35.3248 26.002 35.5364 26.002 35.75C26.002 35.9637 25.9599 36.1753 25.8781 36.3727C25.7963 36.5701 25.6765 36.7495 25.5254 36.9005C25.3743 37.0516 25.195 37.1715 24.9976 37.2532C24.8002 37.335 24.5886 37.3771 24.3749 37.3771C24.1612 37.3771 23.9497 37.335 23.7523 37.2532C23.5549 37.1715 23.3755 37.0516 23.2244 36.9005L13.4744 27.1505C13.3231 26.9996 13.203 26.8203 13.1211 26.6228C13.0392 26.4254 12.997 26.2138 12.997 26C12.997 25.7863 13.0392 25.5746 13.1211 25.3772C13.203 25.1798 13.3231 25.0005 13.4744 24.8495L23.2244 15.0995C23.3754 14.9482 23.5547 14.8281 23.7521 14.7462C23.9495 14.6643 24.1612 14.6221 24.3749 14.6221C24.5887 14.6221 24.8003 14.6643 24.9977 14.7462C25.1951 14.8281 25.3745 14.9482 25.5254 15.0995V15.0995Z" fill="#FBFBFB"/>
<path fill-rule="evenodd" clip-rule="evenodd" d="M14.625 26C14.625 25.569 14.7962 25.1557 15.101 24.851C15.4057 24.5462 15.819 24.375 16.25 24.375H37.375C37.806 24.375 38.2193 24.5462 38.524 24.851C38.8288 25.1557 39 25.569 39 26C39 26.431 38.8288 26.8443 38.524 27.149C38.2193 27.4538 37.806 27.625 37.375 27.625H16.25C15.819 27.625 15.4057 27.4538 15.101 27.149C14.7962 26.8443 14.625 26.431 14.625 26Z" fill="#FBFBFB"/>
</svg>
