<svg width="16" height="18" viewBox="0 0 16 18" fill="none" xmlns="http://www.w3.org/2000/svg">
<path d="M11.3333 13.1667V10.6667H5.5V7.33335H11.3333V4.83335L15.5 9.00002L11.3333 13.1667ZM9.66667 0.666687C10.1087 0.666687 10.5326 0.842282 10.8452 1.15484C11.1577 1.4674 11.3333 1.89133 11.3333 2.33335V4.00002H9.66667V2.33335H2.16667V15.6667H9.66667V14H11.3333V15.6667C11.3333 16.1087 11.1577 16.5326 10.8452 16.8452C10.5326 17.1578 10.1087 17.3334 9.66667 17.3334H2.16667C1.72464 17.3334 1.30072 17.1578 0.988155 16.8452C0.675595 16.5326 0.5 16.1087 0.5 15.6667V2.33335C0.5 1.89133 0.675595 1.4674 0.988155 1.15484C1.30072 0.842282 1.72464 0.666687 2.16667 0.666687H9.66667Z" fill="#BDBDBD"/>
</svg>
