<svg width="97" height="24" viewBox="0 0 97 24" fill="none" xmlns="http://www.w3.org/2000/svg">
<g clip-path="url(#clip0)">
<path fill-rule="evenodd" clip-rule="evenodd" d="M91.6825 5.18249C91.9974 4.87035 92.4225 4.69468 92.8658 4.69346C93.3092 4.69223 93.7353 4.86556 94.0519 5.17595C94.3685 5.48635 94.5502 5.90888 94.5577 6.35219C94.5653 6.79551 94.3981 7.22398 94.0922 7.54499L85.1102 18.7725C84.9559 18.9388 84.7696 19.0722 84.5624 19.1648C84.3553 19.2574 84.1316 19.3073 83.9048 19.3115C83.678 19.3157 83.4526 19.2742 83.2422 19.1893C83.0318 19.1044 82.8407 18.9779 82.6802 18.8175L76.729 12.864C76.5632 12.7095 76.4302 12.5232 76.338 12.3162C76.2457 12.1092 76.1962 11.8857 76.1922 11.6592C76.1882 11.4326 76.2298 11.2075 76.3147 10.9974C76.3996 10.7873 76.5259 10.5964 76.6862 10.4362C76.8464 10.2759 77.0373 10.1496 77.2474 10.0647C77.4575 9.97984 77.6826 9.93816 77.9092 9.94216C78.1357 9.94616 78.3592 9.99575 78.5662 10.088C78.7732 10.1802 78.9595 10.3132 79.114 10.479L83.8255 15.1882L91.6397 5.23199C91.6537 5.21456 91.6687 5.19803 91.6847 5.18249H91.6825Z" fill="#F53030"/>
<path d="M11.2928 6.046C11.6327 6.22144 11.8027 6.50105 11.8027 6.88482C11.8027 7.11508 11.7204 7.33987 11.556 7.55917C11.3805 7.78943 11.1558 7.90456 10.8816 7.90456C10.6952 7.90456 10.5088 7.85522 10.3224 7.75654C9.78513 7.50434 9.20399 7.37824 8.57898 7.37824C7.81143 7.37824 7.14257 7.54272 6.57239 7.87167C6.00221 8.18965 5.56362 8.6447 5.2566 9.23681C4.94958 9.81795 4.79607 10.4868 4.79607 11.2434C4.79607 12.5373 5.14146 13.5186 5.83226 14.1875C6.53402 14.8564 7.44959 15.1908 8.57898 15.1908C9.24785 15.1908 9.82899 15.0647 10.3224 14.8125C10.5198 14.7248 10.6952 14.6809 10.8487 14.6809C11.1338 14.6809 11.3751 14.8015 11.5724 15.0428C11.7369 15.2511 11.8191 15.4759 11.8191 15.7171C11.8191 15.8925 11.7753 16.0515 11.6876 16.1941C11.5998 16.3366 11.4737 16.4463 11.3093 16.523C10.454 16.9507 9.5439 17.1645 8.57898 17.1645C7.50442 17.1645 6.51757 16.9397 5.61844 16.4901C4.71931 16.0296 4.00111 15.3553 3.46382 14.4671C2.92654 13.5789 2.6579 12.5044 2.6579 11.2434C2.6579 10.125 2.91009 9.12167 3.41448 8.23351C3.92983 7.34535 4.63708 6.65456 5.5362 6.16113C6.43533 5.65674 7.44959 5.40455 8.57898 5.40455C9.55487 5.40455 10.4595 5.61837 11.2928 6.046Z" fill="#333333"/>
<path d="M21.8349 12.6085C21.8349 13.4857 21.6375 14.2752 21.2428 14.977C20.848 15.6678 20.3053 16.205 19.6145 16.5888C18.9346 16.9726 18.1835 17.1645 17.3612 17.1645C16.5278 17.1645 15.7712 16.9726 15.0914 16.5888C14.4116 16.205 13.8743 15.6678 13.4796 14.977C13.0848 14.2752 12.8874 13.4857 12.8874 12.6085C12.8874 11.7313 13.0848 10.9473 13.4796 10.2565C13.8743 9.55479 14.4116 9.01202 15.0914 8.62825C15.7712 8.23351 16.5278 8.03614 17.3612 8.03614C18.1835 8.03614 18.9346 8.23351 19.6145 8.62825C20.3053 9.01202 20.848 9.55479 21.2428 10.2565C21.6375 10.9473 21.8349 11.7313 21.8349 12.6085ZM19.8612 12.6085C19.8612 12.0713 19.746 11.5943 19.5158 11.1776C19.2965 10.75 18.9949 10.421 18.6112 10.1908C18.2384 9.96049 17.8217 9.84536 17.3612 9.84536C16.9006 9.84536 16.4785 9.96049 16.0947 10.1908C15.7219 10.421 15.4204 10.75 15.1901 11.1776C14.9708 11.5943 14.8611 12.0713 14.8611 12.6085C14.8611 13.1458 14.9708 13.6228 15.1901 14.0395C15.4204 14.4561 15.7219 14.7796 16.0947 15.0099C16.4785 15.2401 16.9006 15.3553 17.3612 15.3553C17.8217 15.3553 18.2384 15.2401 18.6112 15.0099C18.9949 14.7796 19.2965 14.4561 19.5158 14.0395C19.746 13.6228 19.8612 13.1458 19.8612 12.6085Z" fill="#333333"/>
<path d="M28.0398 8.03614C28.7964 8.03614 29.4817 8.23351 30.0957 8.62825C30.7098 9.01202 31.1922 9.54931 31.5431 10.2401C31.9049 10.9309 32.0859 11.7149 32.0859 12.5921C32.0859 13.4693 31.9104 14.2588 31.5596 14.9605C31.2087 15.6513 30.7262 16.1941 30.1122 16.5888C29.5091 16.9726 28.8402 17.1645 28.1056 17.1645C27.5793 17.1645 27.0804 17.0603 26.6089 16.852C26.1483 16.6327 25.7646 16.3695 25.4575 16.0625V19.2862C25.4575 19.5713 25.3643 19.807 25.1779 19.9934C24.9915 20.1908 24.7558 20.2895 24.4707 20.2895C24.1856 20.2895 23.9499 20.1963 23.7635 20.0099C23.5771 19.8235 23.4838 19.5823 23.4838 19.2862V9.20391C23.4838 8.91882 23.5771 8.68308 23.7635 8.49667C23.9499 8.2993 24.1856 8.20062 24.4707 8.20062C24.7558 8.20062 24.9915 8.2993 25.1779 8.49667C25.3643 8.68308 25.4575 8.91882 25.4575 9.20391V9.2697C25.7207 8.94075 26.088 8.65566 26.5595 8.41443C27.031 8.16224 27.5244 8.03614 28.0398 8.03614ZM27.7931 15.3553C28.4948 15.3553 29.0705 15.0921 29.5201 14.5658C29.9696 14.0395 30.1944 13.3816 30.1944 12.5921C30.1944 11.8026 29.9696 11.1502 29.5201 10.6348C29.0815 10.1085 28.5058 9.84536 27.7931 9.84536C27.0804 9.84536 26.4992 10.1085 26.0497 10.6348C25.6001 11.1502 25.3753 11.8026 25.3753 12.5921C25.3753 13.3816 25.6001 14.0395 26.0497 14.5658C26.4992 15.0921 27.0804 15.3553 27.7931 15.3553Z" fill="#333333"/>
<path d="M35.59 15.9967C35.59 16.2818 35.4967 16.523 35.3103 16.7204C35.1239 16.9068 34.8882 17 34.6031 17C34.318 17 34.0823 16.9068 33.8959 16.7204C33.7095 16.523 33.6163 16.2818 33.6163 15.9967V9.20391C33.6163 8.91882 33.7095 8.68308 33.8959 8.49667C34.0823 8.2993 34.318 8.20062 34.6031 8.20062C34.8882 8.20062 35.1239 8.2993 35.3103 8.49667C35.4967 8.68308 35.59 8.91882 35.59 9.20391V15.9967ZM34.5867 7.13153C34.2138 7.13153 33.9507 7.07122 33.7972 6.95061C33.6437 6.83 33.5669 6.61618 33.5669 6.30916V5.99666C33.5669 5.68964 33.6492 5.47582 33.8136 5.35521C33.9781 5.23459 34.2413 5.17428 34.6031 5.17428C34.9869 5.17428 35.2555 5.23459 35.409 5.35521C35.5625 5.47582 35.6393 5.68964 35.6393 5.99666V6.30916C35.6393 6.62714 35.5571 6.84644 35.3926 6.96706C35.2391 7.07671 34.9704 7.13153 34.5867 7.13153Z" fill="#333333"/>
<path d="M44.7401 8.03614C45.0252 8.03614 45.261 8.12934 45.4474 8.31575C45.6338 8.50215 45.727 8.74338 45.727 9.03944V15.9967C45.727 16.2818 45.6338 16.523 45.4474 16.7204C45.261 16.9068 45.0252 17 44.7401 17C44.455 17 44.2193 16.9068 44.0329 16.7204C43.8575 16.534 43.7643 16.2982 43.7533 16.0132C43.4792 16.3311 43.1064 16.6053 42.6349 16.8355C42.1743 17.0548 41.6864 17.1645 41.171 17.1645C40.4145 17.1645 39.7291 16.9726 39.1151 16.5888C38.5011 16.1941 38.0131 15.6513 37.6513 14.9605C37.3004 14.2697 37.125 13.4857 37.125 12.6085C37.125 11.7313 37.3004 10.9473 37.6513 10.2565C38.0022 9.55479 38.4791 9.01202 39.0822 8.62825C39.6962 8.23351 40.3706 8.03614 41.1052 8.03614C41.6316 8.03614 42.125 8.13483 42.5855 8.3322C43.046 8.5186 43.4353 8.75983 43.7533 9.05588V9.03944C43.7533 8.75435 43.8465 8.5186 44.0329 8.3322C44.2193 8.13483 44.455 8.03614 44.7401 8.03614ZM41.4177 15.3553C42.1305 15.3553 42.7116 15.0976 43.1612 14.5822C43.6107 14.0559 43.8355 13.398 43.8355 12.6085C43.8355 11.8191 43.6107 11.1612 43.1612 10.6348C42.7116 10.1085 42.1305 9.84536 41.4177 9.84536C40.716 9.84536 40.1403 10.1085 39.6908 10.6348C39.2412 11.1612 39.0164 11.8191 39.0164 12.6085C39.0164 13.398 39.2357 14.0559 39.6743 14.5822C40.1239 15.0976 40.705 15.3553 41.4177 15.3553Z" fill="#333333"/>
<path d="M54.9877 4.82889C55.2728 4.82889 55.5085 4.92209 55.6949 5.10849C55.8813 5.2949 55.9745 5.53613 55.9745 5.83218V15.9967C55.9745 16.2818 55.8813 16.523 55.6949 16.7204C55.5085 16.9068 55.2728 17 54.9877 17C54.7026 17 54.4668 16.9068 54.2804 16.7204C54.105 16.534 54.0118 16.2982 54.0008 16.0132C53.7267 16.3311 53.3539 16.6053 52.8824 16.8355C52.4219 17.0548 51.9339 17.1645 51.4186 17.1645C50.662 17.1645 49.9767 16.9726 49.3626 16.5888C48.7486 16.1941 48.2607 15.6513 47.8988 14.9605C47.5479 14.2697 47.3725 13.4857 47.3725 12.6085C47.3725 11.7313 47.5479 10.9473 47.8988 10.2565C48.2497 9.55479 48.7267 9.01202 49.3297 8.62825C49.9438 8.23351 50.6181 8.03614 51.3528 8.03614C51.8791 8.03614 52.3725 8.13483 52.8331 8.3322C53.2936 8.5186 53.6828 8.75983 54.0008 9.05588V5.83218C54.0008 5.54709 54.094 5.31135 54.2804 5.12494C54.4668 4.92757 54.7026 4.82889 54.9877 4.82889ZM51.6653 15.3553C52.378 15.3553 52.9592 15.0976 53.4087 14.5822C53.8583 14.0559 54.0831 13.398 54.0831 12.6085C54.0831 11.8191 53.8583 11.1612 53.4087 10.6348C52.9592 10.1085 52.378 9.84536 51.6653 9.84536C50.9635 9.84536 50.3879 10.1085 49.9383 10.6348C49.4887 11.1612 49.264 11.8191 49.264 12.6085C49.264 13.398 49.4833 14.0559 49.9219 14.5822C50.3714 15.0976 50.9526 15.3553 51.6653 15.3553Z" fill="#333333"/>
<path d="M66.5675 12.6085C66.5675 13.4857 66.3701 14.2752 65.9753 14.977C65.5806 15.6678 65.0378 16.205 64.347 16.5888C63.6672 16.9726 62.9161 17.1645 62.0937 17.1645C61.2604 17.1645 60.5038 16.9726 59.824 16.5888C59.1442 16.205 58.6069 15.6678 58.2121 14.977C57.8174 14.2752 57.62 13.4857 57.62 12.6085C57.62 11.7313 57.8174 10.9473 58.2121 10.2565C58.6069 9.55479 59.1442 9.01202 59.824 8.62825C60.5038 8.23351 61.2604 8.03614 62.0937 8.03614C62.9161 8.03614 63.6672 8.23351 64.347 8.62825C65.0378 9.01202 65.5806 9.55479 65.9753 10.2565C66.3701 10.9473 66.5675 11.7313 66.5675 12.6085ZM64.5938 12.6085C64.5938 12.0713 64.4786 11.5943 64.2484 11.1776C64.0291 10.75 63.7275 10.421 63.3438 10.1908C62.9709 9.96049 62.5543 9.84536 62.0937 9.84536C61.6332 9.84536 61.2111 9.96049 60.8273 10.1908C60.4545 10.421 60.1529 10.75 59.9227 11.1776C59.7034 11.5943 59.5937 12.0713 59.5937 12.6085C59.5937 13.1458 59.7034 13.6228 59.9227 14.0395C60.1529 14.4561 60.4545 14.7796 60.8273 15.0099C61.2111 15.2401 61.6332 15.3553 62.0937 15.3553C62.5543 15.3553 62.9709 15.2401 63.3438 15.0099C63.7275 14.7796 64.0291 14.4561 64.2484 14.0395C64.4786 13.6228 64.5938 13.1458 64.5938 12.6085Z" fill="#333333"/>
</g>
<defs>
<clipPath id="clip0">
<rect width="97" height="24" fill="white"/>
</clipPath>
</defs>
</svg>
