<svg width="113" height="24" viewBox="0 0 113 24" fill="none" xmlns="http://www.w3.org/2000/svg">
<path d="M109 20H105M93 8V4V8ZM93 4H97H93ZM93 4L98 9L93 4ZM109 8V4V8ZM109 4H105H109ZM109 4L104 9L109 4ZM93 16V20V16ZM93 20H97H93ZM93 20L98 15L93 20ZM109 20L104 15L109 20ZM109 20V16V20Z" stroke="#F53030" stroke-width="2" stroke-linecap="round" stroke-linejoin="round"/>
<path d="M13.2632 15.7171C13.318 15.8596 13.3455 15.9912 13.3455 16.1118C13.3455 16.3969 13.2522 16.6327 13.0658 16.8191C12.8794 16.9945 12.6656 17.0822 12.4244 17.0822C12.227 17.0822 12.0461 17.0219 11.8816 16.9013C11.7281 16.7807 11.6075 16.6162 11.5198 16.4079L10.6645 14.4177H5.76317L4.90791 16.4243C4.83115 16.6327 4.71054 16.7971 4.54606 16.9178C4.39255 17.0274 4.22259 17.0822 4.03619 17.0822C3.7511 17.0822 3.5318 17.0055 3.37829 16.852C3.23575 16.6985 3.16447 16.4901 3.16447 16.227C3.16447 16.1283 3.18092 16.0241 3.21382 15.9145L7.30923 6.07889C7.39695 5.85959 7.52853 5.68963 7.70397 5.56902C7.87941 5.4484 8.07678 5.39906 8.29608 5.42099C8.49345 5.42099 8.67437 5.4813 8.83885 5.60191C9.01429 5.71156 9.14038 5.87055 9.21714 6.07889L13.2632 15.7171ZM9.85859 12.5263L8.1974 8.67759L6.5691 12.5263H9.85859ZM19.1296 8.03613C19.8861 8.03613 20.5715 8.2335 21.1855 8.62824C21.7995 9.01202 22.282 9.5493 22.6329 10.2401C22.9947 10.9309 23.1756 11.7149 23.1756 12.5921C23.1756 13.4693 23.0002 14.2588 22.6493 14.9605C22.2984 15.6513 21.816 16.1941 21.2019 16.5888C20.5989 16.9726 19.93 17.1645 19.1953 17.1645C18.669 17.1645 18.1701 17.0603 17.6986 16.852C17.2381 16.6327 16.8543 16.3695 16.5473 16.0625V16.1612C16.5473 16.4463 16.4541 16.6875 16.2677 16.8849C16.0813 17.0713 15.8456 17.1645 15.5605 17.1645C15.2754 17.1645 15.0396 17.0713 14.8532 16.8849C14.6668 16.6985 14.5736 16.4572 14.5736 16.1612V5.83218C14.5736 5.54709 14.6668 5.31134 14.8532 5.12493C15.0396 4.92757 15.2754 4.82888 15.5605 4.82888C15.8456 4.82888 16.0813 4.92757 16.2677 5.12493C16.4541 5.31134 16.5473 5.54709 16.5473 5.83218V9.26969C16.8105 8.94075 17.1778 8.65566 17.6493 8.41443C18.1208 8.16223 18.6142 8.03613 19.1296 8.03613ZM18.8828 15.3553C19.5846 15.3553 20.1603 15.0921 20.6098 14.5658C21.0594 14.0395 21.2842 13.3816 21.2842 12.5921C21.2842 11.8026 21.0594 11.1502 20.6098 10.6348C20.1712 10.1085 19.5956 9.84536 18.8828 9.84536C18.1701 9.84536 17.589 10.1085 17.1394 10.6348C16.6899 11.1502 16.4651 11.8026 16.4651 12.5921C16.4651 13.3816 16.6899 14.0395 17.1394 14.5658C17.589 15.0921 18.1701 15.3553 18.8828 15.3553ZM29.3935 8.03613C29.7225 8.03613 29.9966 8.12934 30.2159 8.31574C30.4462 8.50215 30.5613 8.72145 30.5613 8.97364C30.5613 9.31355 30.4736 9.57123 30.2982 9.74667C30.1227 9.91115 29.9144 9.99338 29.6732 9.99338C29.5087 9.99338 29.3223 9.955 29.1139 9.87825C29.081 9.86729 29.0043 9.84536 28.8837 9.81246C28.774 9.77957 28.6534 9.76312 28.5218 9.76312C28.2367 9.76312 27.9626 9.85084 27.6995 10.0263C27.4363 10.2017 27.217 10.4704 27.0416 10.8322C26.8771 11.1831 26.7948 11.6052 26.7948 12.0987V15.9967C26.7948 16.2818 26.7016 16.523 26.5152 16.7204C26.3288 16.9068 26.0931 17 25.808 17C25.5229 17 25.2872 16.9068 25.1008 16.7204C24.9144 16.523 24.8212 16.2818 24.8212 15.9967V9.2039C24.8212 8.91882 24.9144 8.68307 25.1008 8.49666C25.2872 8.29929 25.5229 8.20061 25.808 8.20061C26.0931 8.20061 26.3288 8.29929 26.5152 8.49666C26.7016 8.68307 26.7948 8.91882 26.7948 9.2039V9.41772C27.047 8.96816 27.4089 8.62824 27.8804 8.39798C28.3519 8.15675 28.8563 8.03613 29.3935 8.03613ZM33.8112 15.9967C33.8112 16.2818 33.718 16.523 33.5316 16.7204C33.3452 16.9068 33.1095 17 32.8244 17C32.5393 17 32.3035 16.9068 32.1171 16.7204C31.9307 16.523 31.8375 16.2818 31.8375 15.9967V9.2039C31.8375 8.91882 31.9307 8.68307 32.1171 8.49666C32.3035 8.29929 32.5393 8.20061 32.8244 8.20061C33.1095 8.20061 33.3452 8.29929 33.5316 8.49666C33.718 8.68307 33.8112 8.91882 33.8112 9.2039V15.9967ZM32.8079 7.13152C32.4351 7.13152 32.172 7.07122 32.0185 6.9506C31.8649 6.82999 31.7882 6.61617 31.7882 6.30915V5.99665C31.7882 5.68963 31.8704 5.47581 32.0349 5.3552C32.1994 5.23458 32.4625 5.17428 32.8244 5.17428C33.2082 5.17428 33.4768 5.23458 33.6303 5.3552C33.7838 5.47581 33.8606 5.68963 33.8606 5.99665V6.30915C33.8606 6.62714 33.7783 6.84644 33.6139 6.96705C33.4603 7.0767 33.1917 7.13152 32.8079 7.13152ZM40.4121 8.03613C40.741 8.03613 41.0151 8.12934 41.2344 8.31574C41.4647 8.50215 41.5798 8.72145 41.5798 8.97364C41.5798 9.31355 41.4921 9.57123 41.3167 9.74667C41.1412 9.91115 40.9329 9.99338 40.6917 9.99338C40.5272 9.99338 40.3408 9.955 40.1324 9.87825C40.0996 9.86729 40.0228 9.84536 39.9022 9.81246C39.7925 9.77957 39.6719 9.76312 39.5403 9.76312C39.2553 9.76312 38.9811 9.85084 38.718 10.0263C38.4548 10.2017 38.2355 10.4704 38.0601 10.8322C37.8956 11.1831 37.8134 11.6052 37.8134 12.0987V15.9967C37.8134 16.2818 37.7202 16.523 37.5338 16.7204C37.3473 16.9068 37.1116 17 36.8265 17C36.5414 17 36.3057 16.9068 36.1193 16.7204C35.9329 16.523 35.8397 16.2818 35.8397 15.9967V9.2039C35.8397 8.91882 35.9329 8.68307 36.1193 8.49666C36.3057 8.29929 36.5414 8.20061 36.8265 8.20061C37.1116 8.20061 37.3473 8.29929 37.5338 8.49666C37.7202 8.68307 37.8134 8.91882 37.8134 9.2039V9.41772C38.0656 8.96816 38.4274 8.62824 38.8989 8.39798C39.3704 8.15675 39.8748 8.03613 40.4121 8.03613ZM52.2849 8.03613C53.4034 8.03613 54.1764 8.37057 54.604 9.03943C55.0317 9.69733 55.2455 10.6129 55.2455 11.7862V15.9967C55.2455 16.2818 55.1523 16.523 54.9659 16.7204C54.7795 16.9068 54.5437 17 54.2586 17C53.9735 17 53.7378 16.9068 53.5514 16.7204C53.365 16.523 53.2718 16.2818 53.2718 15.9967V11.7862C53.2718 11.1831 53.1457 10.7116 52.8935 10.3717C52.6413 10.0208 52.2082 9.84536 51.5941 9.84536C50.9582 9.84536 50.4593 10.0318 50.0974 10.4046C49.7356 10.7664 49.5547 11.2269 49.5547 11.7862V15.9967C49.5547 16.2818 49.4615 16.523 49.2751 16.7204C49.0886 16.9068 48.8529 17 48.5678 17C48.2827 17 48.047 16.9068 47.8606 16.7204C47.6742 16.523 47.581 16.2818 47.581 15.9967V9.2039C47.581 8.91882 47.6742 8.68307 47.8606 8.49666C48.047 8.29929 48.2827 8.20061 48.5678 8.20061C48.8529 8.20061 49.0886 8.29929 49.2751 8.49666C49.4615 8.68307 49.5547 8.91882 49.5547 9.2039V9.48351C49.8507 9.08877 50.2345 8.74886 50.706 8.46377C51.1884 8.17868 51.7148 8.03613 52.2849 8.03613ZM65.8328 12.6085C65.8328 13.4857 65.6354 14.2752 65.2407 14.977C64.8459 15.6678 64.3031 16.205 63.6124 16.5888C62.9325 16.9726 62.1814 17.1645 61.3591 17.1645C60.5257 17.1645 59.7691 16.9726 59.0893 16.5888C58.4095 16.205 57.8722 15.6678 57.4775 14.977C57.0827 14.2752 56.8853 13.4857 56.8853 12.6085C56.8853 11.7313 57.0827 10.9473 57.4775 10.2565C57.8722 9.55478 58.4095 9.01202 59.0893 8.62824C59.7691 8.2335 60.5257 8.03613 61.3591 8.03613C62.1814 8.03613 62.9325 8.2335 63.6124 8.62824C64.3031 9.01202 64.8459 9.55478 65.2407 10.2565C65.6354 10.9473 65.8328 11.7313 65.8328 12.6085ZM63.8591 12.6085C63.8591 12.0712 63.7439 11.5943 63.5137 11.1776C63.2944 10.75 62.9928 10.421 62.6091 10.1908C62.2362 9.96049 61.8196 9.84536 61.3591 9.84536C60.8985 9.84536 60.4764 9.96049 60.0926 10.1908C59.7198 10.421 59.4183 10.75 59.188 11.1776C58.9687 11.5943 58.859 12.0712 58.859 12.6085C58.859 13.1458 58.9687 13.6228 59.188 14.0395C59.4183 14.4561 59.7198 14.7796 60.0926 15.0099C60.4764 15.2401 60.8985 15.3553 61.3591 15.3553C61.8196 15.3553 62.2362 15.2401 62.6091 15.0099C62.9928 14.7796 63.2944 14.4561 63.5137 14.0395C63.7439 13.6228 63.8591 13.1458 63.8591 12.6085ZM71.7252 15.1414C71.8787 15.1414 72.0158 15.2182 72.1364 15.3717C72.268 15.5142 72.3337 15.7061 72.3337 15.9474C72.3337 16.2434 72.1693 16.4956 71.8403 16.7039C71.5223 16.9013 71.1605 17 70.7548 17C70.075 17 69.4993 16.8575 69.0278 16.5724C68.5673 16.2763 68.337 15.6568 68.337 14.7138V10.1743H67.5804C67.3173 10.1743 67.098 10.0866 66.9225 9.91115C66.7471 9.73571 66.6594 9.51641 66.6594 9.25325C66.6594 9.00105 66.7471 8.79272 66.9225 8.62824C67.098 8.4528 67.3173 8.36508 67.5804 8.36508H68.337V7.31245C68.337 7.02736 68.4302 6.79161 68.6166 6.60521C68.814 6.40784 69.0552 6.30915 69.3403 6.30915C69.6144 6.30915 69.8447 6.40784 70.0311 6.60521C70.2175 6.79161 70.3107 7.02736 70.3107 7.31245V8.36508H71.4785C71.7416 8.36508 71.9609 8.4528 72.1364 8.62824C72.3118 8.80368 72.3995 9.02298 72.3995 9.28614C72.3995 9.53834 72.3118 9.75215 72.1364 9.92759C71.9609 10.0921 71.7416 10.1743 71.4785 10.1743H70.3107V14.6316C70.3107 14.8618 70.371 15.0318 70.4916 15.1414C70.6122 15.2401 70.7767 15.2895 70.9851 15.2895C71.0728 15.2895 71.1934 15.2675 71.3469 15.2237C71.4785 15.1688 71.6046 15.1414 71.7252 15.1414ZM81.3335 8.03613C81.6185 8.03613 81.8543 8.12934 82.0407 8.31574C82.2271 8.50215 82.3203 8.74338 82.3203 9.03943V15.9967C82.3203 16.2818 82.2271 16.523 82.0407 16.7204C81.8543 16.9068 81.6185 17 81.3335 17C81.0484 17 80.8126 16.9068 80.6262 16.7204C80.4508 16.534 80.3576 16.2982 80.3466 16.0132C80.0725 16.3311 79.6997 16.6053 79.2282 16.8355C78.7677 17.0548 78.2797 17.1645 77.7644 17.1645C77.0078 17.1645 76.3225 16.9726 75.7084 16.5888C75.0944 16.1941 74.6064 15.6513 74.2446 14.9605C73.8937 14.2697 73.7183 13.4857 73.7183 12.6085C73.7183 11.7313 73.8937 10.9473 74.2446 10.2565C74.5955 9.55478 75.0725 9.01202 75.6755 8.62824C76.2896 8.2335 76.9639 8.03613 77.6986 8.03613C78.2249 8.03613 78.7183 8.13482 79.1788 8.33219C79.6394 8.51859 80.0286 8.75982 80.3466 9.05588V9.03943C80.3466 8.75434 80.4398 8.51859 80.6262 8.33219C80.8126 8.13482 81.0484 8.03613 81.3335 8.03613ZM78.0111 15.3553C78.7238 15.3553 79.3049 15.0976 79.7545 14.5822C80.2041 14.0559 80.4288 13.398 80.4288 12.6085C80.4288 11.8191 80.2041 11.1612 79.7545 10.6348C79.3049 10.1085 78.7238 9.84536 78.0111 9.84536C77.3093 9.84536 76.7337 10.1085 76.2841 10.6348C75.8345 11.1612 75.6097 11.8191 75.6097 12.6085C75.6097 13.398 75.829 14.0559 76.2676 14.5822C76.7172 15.0976 77.2983 15.3553 78.0111 15.3553Z" fill="#333333"/>
</svg>
