<svg width="16" height="16" viewBox="0 0 16 16" fill="none" xmlns="http://www.w3.org/2000/svg">
<path fill-rule="evenodd" clip-rule="evenodd" d="M8.837 1.62599C8.591 0.790988 7.409 0.790988 7.163 1.62599L7.069 1.94499C6.98995 2.21293 6.85196 2.4598 6.66513 2.66751C6.47831 2.87522 6.24739 3.0385 5.98929 3.1454C5.73119 3.25231 5.45245 3.30012 5.17347 3.28534C4.8945 3.27056 4.62236 3.19356 4.377 3.05999L4.085 2.89999C3.321 2.48499 2.485 3.31999 2.901 4.08499L3.06 4.37699C3.19358 4.62235 3.27058 4.89448 3.28536 5.17346C3.30014 5.45243 3.25232 5.73118 3.14542 5.98928C3.03852 6.24738 2.87523 6.4783 2.66752 6.66512C2.45982 6.85194 2.21295 6.98993 1.945 7.06899L1.626 7.16299C0.791004 7.40899 0.791004 8.59099 1.626 8.83699L1.945 8.93099C2.21309 9.01001 2.46009 9.14802 2.6679 9.33491C2.87571 9.52181 3.03907 9.75283 3.14598 10.0111C3.2529 10.2693 3.30067 10.5482 3.28579 10.8273C3.27092 11.1064 3.19377 11.3786 3.06 11.624L2.9 11.915C2.485 12.679 3.32 13.515 4.085 13.099L4.377 12.94C4.62243 12.8064 4.89463 12.7295 5.17366 12.7148C5.45269 12.7 5.73147 12.7479 5.98959 12.8549C6.2477 12.9619 6.47861 13.1253 6.66538 13.3332C6.85215 13.541 6.99006 13.788 7.069 14.056L7.163 14.374C7.409 15.209 8.591 15.209 8.837 14.374L8.931 14.055C9.01002 13.7869 9.14804 13.5399 9.33493 13.3321C9.52182 13.1243 9.75285 12.9609 10.0111 12.854C10.2693 12.7471 10.5482 12.6993 10.8273 12.7142C11.1064 12.7291 11.3786 12.8062 11.624 12.94L11.915 13.1C12.679 13.515 13.515 12.68 13.099 11.915L12.94 11.624C12.8063 11.3785 12.7291 11.1062 12.7143 10.8271C12.6995 10.5479 12.7474 10.269 12.8544 10.0108C12.9614 9.75253 13.1249 9.52151 13.3328 9.33467C13.5407 9.14783 13.7878 9.00989 14.056 8.93099L14.374 8.83699C15.209 8.59099 15.209 7.40899 14.374 7.16299L14.055 7.06899C13.7871 6.98993 13.5402 6.85194 13.3325 6.66512C13.1248 6.4783 12.9615 6.24738 12.8546 5.98928C12.7477 5.73118 12.6999 5.45243 12.7147 5.17346C12.7294 4.89448 12.8064 4.62235 12.94 4.37699L13.1 4.08499C13.515 3.32099 12.68 2.48499 11.915 2.90099L11.624 3.05999C11.3786 3.19394 11.1062 3.27124 10.827 3.28621C10.5478 3.30119 10.2688 3.25346 10.0104 3.14653C9.75209 3.0396 9.52095 2.87618 9.33399 2.66827C9.14703 2.46035 9.00899 2.21321 8.93 1.94499L8.836 1.62599H8.837ZM6.204 1.34299C6.731 -0.447012 9.269 -0.447012 9.796 1.34299L9.89 1.66199C9.92681 1.78694 9.99111 1.90207 10.0782 1.99895C10.1653 2.09582 10.2729 2.17198 10.3933 2.22184C10.5136 2.2717 10.6436 2.294 10.7736 2.28711C10.9037 2.28021 11.0306 2.24429 11.145 2.18199L11.437 2.02199C13.077 1.12999 14.871 2.92299 13.977 4.56299L13.818 4.85499C13.7557 4.96938 13.7198 5.09627 13.7129 5.22634C13.706 5.35642 13.7283 5.48639 13.7782 5.60673C13.828 5.72707 13.9042 5.83472 14.001 5.9218C14.0979 6.00889 14.2131 6.07318 14.338 6.10999L14.657 6.20399C16.447 6.73099 16.447 9.26899 14.657 9.79599L14.338 9.88999C14.2131 9.92679 14.0979 9.99109 14.001 10.0782C13.9042 10.1653 13.828 10.2729 13.7782 10.3932C13.7283 10.5136 13.706 10.6436 13.7129 10.7736C13.7198 10.9037 13.7557 11.0306 13.818 11.145L13.978 11.437C14.871 13.077 13.076 14.871 11.437 13.977L11.145 13.818C11.0306 13.7557 10.9037 13.7198 10.7736 13.7129C10.6436 13.706 10.5136 13.7283 10.3933 13.7781C10.2729 13.828 10.1653 13.9042 10.0782 14.001C9.99111 14.0979 9.92681 14.213 9.89 14.338L9.796 14.657C9.269 16.447 6.731 16.447 6.204 14.657L6.11 14.338C6.0732 14.213 6.0089 14.0979 5.92182 14.001C5.83474 13.9042 5.72708 13.828 5.60674 13.7781C5.48641 13.7283 5.35643 13.706 5.22636 13.7129C5.09628 13.7198 4.9694 13.7557 4.855 13.818L4.563 13.978C2.923 14.871 1.13 13.076 2.023 11.437L2.182 11.145C2.24431 11.0306 2.28023 10.9037 2.28712 10.7736C2.29402 10.6436 2.27172 10.5136 2.22186 10.3932C2.17199 10.2729 2.09584 10.1653 1.99896 10.0782C1.90209 9.99109 1.78696 9.92679 1.662 9.88999L1.343 9.79599C-0.446996 9.26899 -0.446996 6.73099 1.343 6.20399L1.662 6.10999C1.78696 6.07318 1.90209 6.00889 1.99896 5.9218C2.09584 5.83472 2.17199 5.72707 2.22186 5.60673C2.27172 5.48639 2.29402 5.35642 2.28712 5.22634C2.28023 5.09627 2.24431 4.96938 2.182 4.85499L2.022 4.56299C1.13 2.92299 2.924 1.12999 4.563 2.02299L4.855 2.18199C4.9694 2.24429 5.09628 2.28021 5.22636 2.28711C5.35643 2.294 5.48641 2.2717 5.60674 2.22184C5.72708 2.17198 5.83474 2.09582 5.92182 1.99895C6.0089 1.90207 6.0732 1.78694 6.11 1.66199L6.204 1.34299V1.34299Z" fill="#F53030"/>
<path fill-rule="evenodd" clip-rule="evenodd" d="M8 5.75397C7.40432 5.75397 6.83304 5.9906 6.41184 6.41181C5.99063 6.83301 5.754 7.40429 5.754 7.99997C5.754 8.59564 5.99063 9.16692 6.41184 9.58813C6.83304 10.0093 7.40432 10.246 8 10.246C8.59567 10.246 9.16695 10.0093 9.58816 9.58813C10.0094 9.16692 10.246 8.59564 10.246 7.99997C10.246 7.40429 10.0094 6.83301 9.58816 6.41181C9.16695 5.9906 8.59567 5.75397 8 5.75397V5.75397ZM4.754 7.99997C4.754 7.5737 4.83796 7.1516 5.00108 6.75778C5.16421 6.36395 5.40331 6.00612 5.70473 5.7047C6.00615 5.40328 6.36398 5.16418 6.75781 5.00105C7.15163 4.83793 7.57373 4.75397 8 4.75397C8.42627 4.75397 8.84837 4.83793 9.24219 5.00105C9.63601 5.16418 9.99385 5.40328 10.2953 5.7047C10.5967 6.00612 10.8358 6.36395 10.9989 6.75778C11.162 7.1516 11.246 7.5737 11.246 7.99997C11.246 8.86086 10.904 9.68649 10.2953 10.2952C9.68652 10.904 8.86089 11.246 8 11.246C7.1391 11.246 6.31347 10.904 5.70473 10.2952C5.09599 9.68649 4.754 8.86086 4.754 7.99997V7.99997Z" fill="#F53030"/>
</svg>
