<svg width="18" height="18" viewBox="0 0 18 18" fill="none" xmlns="http://www.w3.org/2000/svg">
<path d="M11.1567 11.1567C11.7287 10.5847 12.05 9.80891 12.05 9C12.05 8.19109 11.7287 7.41531 11.1567 6.84332C10.5847 6.27134 9.80891 5.95 9 5.95C8.19109 5.95 7.41531 6.27134 6.84332 6.84332C6.27134 7.41531 5.95 8.19109 5.95 9C5.95 9.80891 6.27134 10.5847 6.84332 11.1567C7.41531 11.7287 8.19109 12.05 9 12.05C9.80891 12.05 10.5847 11.7287 11.1567 11.1567ZM10.825 9C10.825 9.48402 10.6327 9.94822 10.2905 10.2905C9.94822 10.6327 9.48402 10.825 9 10.825C8.51598 10.825 8.05178 10.6327 7.70953 10.2905C7.36728 9.94822 7.175 9.48402 7.175 9C7.175 8.51598 7.36728 8.05178 7.70953 7.70953C8.05178 7.36728 8.51598 7.175 9 7.175C9.48402 7.175 9.94822 7.36728 10.2905 7.70953C10.6327 8.05178 10.825 8.51598 10.825 9Z" fill="#F53030" stroke="#F53030" stroke-width="0.1"/>
<mask id="path-2-outside-1" maskUnits="userSpaceOnUse" x="-0.250427" y="-0.25" width="18" height="18" fill="black">
<rect fill="white" x="-0.250427" y="-0.25" width="18" height="18"/>
<path fill-rule="evenodd" clip-rule="evenodd" d="M8.99996 0.750002C8.79896 0.750002 8.59946 0.757502 8.40222 0.771002C7.82997 0.812252 7.39346 1.23375 7.26821 1.749L7.00421 2.8365C6.98921 2.895 6.93671 2.9655 6.83546 3.0015C6.65003 3.06871 6.46783 3.14455 6.28946 3.22875C6.19196 3.27375 6.10497 3.26175 6.05322 3.23025L5.09771 2.64825C4.64471 2.37225 4.03872 2.38275 3.60522 2.7585C3.30297 3.0195 3.02022 3.303 2.75847 3.6045C2.38347 4.03875 2.37222 4.64475 2.64822 5.097L3.23022 6.05325C3.26172 6.105 3.27447 6.192 3.22872 6.2895C3.14472 6.46725 3.06897 6.6495 3.00222 6.8355C2.96472 6.93675 2.89497 6.99 2.83647 7.00425L1.74897 7.26825C1.23372 7.3935 0.812216 7.83 0.770966 8.40225C0.742442 8.80024 0.742442 9.19976 0.770966 9.59775C0.812216 10.17 1.23372 10.6065 1.74897 10.7318L2.83647 10.9958C2.89497 11.0108 2.96547 11.0633 3.00147 11.1645C3.06897 11.3505 3.14472 11.5328 3.22872 11.7113C3.27372 11.808 3.26172 11.895 3.23022 11.9468L2.64822 12.9023C2.37222 13.3553 2.38272 13.9613 2.75847 14.3948C3.01947 14.697 3.30297 14.9798 3.60447 15.2415C4.03872 15.6165 4.64472 15.6278 5.09697 15.3518L6.05322 14.7698C6.10497 14.7383 6.19196 14.7255 6.28946 14.7713C6.46721 14.8553 6.64946 14.931 6.83546 14.9978C6.93671 15.0353 6.98996 15.105 7.00421 15.1635L7.26821 16.251C7.39346 16.7663 7.82997 17.1878 8.40222 17.2283C8.8002 17.2568 9.19973 17.2568 9.59771 17.2283C10.17 17.1878 10.6065 16.7663 10.7317 16.251L10.9957 15.1635C11.0107 15.105 11.0632 15.0345 11.1645 14.9985C11.3505 14.931 11.5327 14.8553 11.7112 14.7713C11.808 14.7263 11.895 14.7383 11.9467 14.7698L12.9022 15.3518C13.3552 15.6278 13.9612 15.6173 14.3947 15.2415C14.697 14.9805 14.9797 14.697 15.2415 14.3955C15.6165 13.9613 15.6277 13.3553 15.3517 12.903L14.7697 11.9468C14.7382 11.895 14.7255 11.808 14.7712 11.7105C14.8552 11.5328 14.931 11.3505 14.9977 11.1645C15.0352 11.0633 15.105 11.01 15.1635 10.9958L16.251 10.7318C16.7662 10.6065 17.1877 10.17 17.2282 9.59775C17.2568 9.19976 17.2568 8.80024 17.2282 8.40225C17.1877 7.83 16.7662 7.3935 16.251 7.26825L15.1635 7.00425C15.105 6.98925 15.0345 6.93675 14.9985 6.8355C14.9312 6.65007 14.8554 6.46787 14.7712 6.2895C14.7262 6.192 14.7382 6.105 14.7697 6.05325L15.3517 5.09775C15.6277 4.64475 15.6172 4.03875 15.2415 3.60525C14.9805 3.303 14.697 3.02025 14.3955 2.7585C13.9612 2.3835 13.3552 2.37225 12.903 2.64825L11.9467 3.23025C11.895 3.26175 11.808 3.2745 11.7105 3.22875C11.5321 3.14482 11.3499 3.06923 11.1645 3.00225C11.0632 2.96475 11.01 2.895 10.9957 2.8365L10.7317 1.749C10.6065 1.23375 10.17 0.812252 9.59771 0.771002C9.39878 0.756876 9.1994 0.749871 8.99996 0.750002ZM8.48247 1.89375C8.82702 1.86905 9.17291 1.86905 9.51746 1.89375C9.55871 1.89675 9.61871 1.93125 9.63896 2.01375L9.90222 3.10125C10.017 3.57225 10.3717 3.91125 10.782 4.05975C10.9357 4.11525 11.0857 4.1775 11.232 4.2465C11.4363 4.34535 11.662 4.39201 11.8888 4.38233C12.1156 4.37264 12.3365 4.30691 12.5317 4.191L13.488 3.609C13.5607 3.564 13.6275 3.582 13.659 3.609C13.92 3.8355 14.1645 4.08 14.391 4.341C14.418 4.3725 14.436 4.4385 14.391 4.512L13.809 5.4675C13.6929 5.66279 13.6271 5.88381 13.6174 6.11076C13.6078 6.33772 13.6545 6.56354 13.7535 6.768C13.8225 6.91425 13.8847 7.06425 13.9395 7.218C14.088 7.62825 14.4285 7.983 14.898 8.097L15.9855 8.36175C16.0687 8.38125 16.1032 8.44125 16.1062 8.4825C16.1309 8.82706 16.1309 9.17294 16.1062 9.5175C16.1032 9.55875 16.0687 9.61875 15.9862 9.639L14.8987 9.90225C14.6787 9.95835 14.4761 10.0681 14.3088 10.2216C14.1416 10.3751 14.0149 10.5676 13.9402 10.782C13.8848 10.9349 13.8222 11.085 13.7527 11.232C13.654 11.4364 13.6074 11.6621 13.6173 11.889C13.6271 12.1158 13.6929 12.3366 13.809 12.5318L14.391 13.488C14.436 13.5608 14.418 13.6275 14.391 13.659C14.1649 13.9203 13.9203 14.165 13.659 14.391C13.6275 14.418 13.5615 14.436 13.488 14.391L12.5317 13.809C12.3365 13.6931 12.1156 13.6274 11.8888 13.6177C11.662 13.608 11.4363 13.6547 11.232 13.7535C11.085 13.8225 10.9348 13.8846 10.782 13.9395C10.5677 14.0143 10.3753 14.141 10.222 14.3082C10.0686 14.4755 9.95899 14.6781 9.90296 14.898L9.63822 15.9855C9.61872 16.0688 9.55871 16.1033 9.51746 16.1063C9.17291 16.1309 8.82702 16.1309 8.48247 16.1063C8.44122 16.1033 8.38121 16.0688 8.36096 15.9863L8.09771 14.8988C8.04162 14.6788 7.93192 14.4761 7.7784 14.3088C7.62489 14.1416 7.43235 14.015 7.21796 13.9403C7.06511 13.8848 6.91495 13.8223 6.76796 13.7528C6.56344 13.6539 6.33759 13.6073 6.11063 13.6171C5.88367 13.6269 5.66269 13.6928 5.46746 13.809L4.51197 14.391C4.43922 14.436 4.37247 14.418 4.34097 14.391C4.07965 14.165 3.83501 13.9203 3.60897 13.659C3.58197 13.6275 3.56397 13.5615 3.60897 13.488L4.19096 12.5318C4.30687 12.3366 4.3726 12.1157 4.38229 11.8889C4.39197 11.6621 4.34531 11.4364 4.24647 11.232C4.17723 11.085 4.11492 10.9348 4.05972 10.782C3.98498 10.5678 3.85841 10.3755 3.6913 10.2221C3.52419 10.0688 3.32173 9.95914 3.10197 9.903L2.01447 9.63825C1.93122 9.61875 1.89672 9.55875 1.89372 9.5175C1.86901 9.17294 1.86901 8.82706 1.89372 8.4825C1.89672 8.44125 1.93122 8.38125 2.01372 8.361L3.10122 8.09775C3.3212 8.04166 3.52387 7.93195 3.69112 7.77844C3.85838 7.62493 3.98501 7.43238 4.05972 7.218C4.11492 7.06517 4.17724 6.91501 4.24647 6.768C4.34544 6.56354 4.39218 6.33772 4.38249 6.11076C4.37281 5.88381 4.307 5.66279 4.19096 5.4675L3.60897 4.512C3.56397 4.43925 3.58197 4.3725 3.60897 4.341C3.83547 4.08 4.07997 3.8355 4.34097 3.609C4.37247 3.582 4.43847 3.564 4.51197 3.609L5.46746 4.191C5.66276 4.30704 5.88377 4.37284 6.11073 4.38253C6.33768 4.39221 6.5635 4.34548 6.76796 4.2465C6.91497 4.17727 7.06514 4.11495 7.21796 4.05975C7.43212 3.98501 7.62445 3.85845 7.77782 3.69134C7.93119 3.52423 8.04083 3.32177 8.09696 3.102L8.36171 2.0145C8.38121 1.93125 8.44122 1.89675 8.48247 1.89375Z"/>
</mask>
<path fill-rule="evenodd" clip-rule="evenodd" d="M8.99996 0.750002C8.79896 0.750002 8.59946 0.757502 8.40222 0.771002C7.82997 0.812252 7.39346 1.23375 7.26821 1.749L7.00421 2.8365C6.98921 2.895 6.93671 2.9655 6.83546 3.0015C6.65003 3.06871 6.46783 3.14455 6.28946 3.22875C6.19196 3.27375 6.10497 3.26175 6.05322 3.23025L5.09771 2.64825C4.64471 2.37225 4.03872 2.38275 3.60522 2.7585C3.30297 3.0195 3.02022 3.303 2.75847 3.6045C2.38347 4.03875 2.37222 4.64475 2.64822 5.097L3.23022 6.05325C3.26172 6.105 3.27447 6.192 3.22872 6.2895C3.14472 6.46725 3.06897 6.6495 3.00222 6.8355C2.96472 6.93675 2.89497 6.99 2.83647 7.00425L1.74897 7.26825C1.23372 7.3935 0.812216 7.83 0.770966 8.40225C0.742442 8.80024 0.742442 9.19976 0.770966 9.59775C0.812216 10.17 1.23372 10.6065 1.74897 10.7318L2.83647 10.9958C2.89497 11.0108 2.96547 11.0633 3.00147 11.1645C3.06897 11.3505 3.14472 11.5328 3.22872 11.7113C3.27372 11.808 3.26172 11.895 3.23022 11.9468L2.64822 12.9023C2.37222 13.3553 2.38272 13.9613 2.75847 14.3948C3.01947 14.697 3.30297 14.9798 3.60447 15.2415C4.03872 15.6165 4.64472 15.6278 5.09697 15.3518L6.05322 14.7698C6.10497 14.7383 6.19196 14.7255 6.28946 14.7713C6.46721 14.8553 6.64946 14.931 6.83546 14.9978C6.93671 15.0353 6.98996 15.105 7.00421 15.1635L7.26821 16.251C7.39346 16.7663 7.82997 17.1878 8.40222 17.2283C8.8002 17.2568 9.19973 17.2568 9.59771 17.2283C10.17 17.1878 10.6065 16.7663 10.7317 16.251L10.9957 15.1635C11.0107 15.105 11.0632 15.0345 11.1645 14.9985C11.3505 14.931 11.5327 14.8553 11.7112 14.7713C11.808 14.7263 11.895 14.7383 11.9467 14.7698L12.9022 15.3518C13.3552 15.6278 13.9612 15.6173 14.3947 15.2415C14.697 14.9805 14.9797 14.697 15.2415 14.3955C15.6165 13.9613 15.6277 13.3553 15.3517 12.903L14.7697 11.9468C14.7382 11.895 14.7255 11.808 14.7712 11.7105C14.8552 11.5328 14.931 11.3505 14.9977 11.1645C15.0352 11.0633 15.105 11.01 15.1635 10.9958L16.251 10.7318C16.7662 10.6065 17.1877 10.17 17.2282 9.59775C17.2568 9.19976 17.2568 8.80024 17.2282 8.40225C17.1877 7.83 16.7662 7.3935 16.251 7.26825L15.1635 7.00425C15.105 6.98925 15.0345 6.93675 14.9985 6.8355C14.9312 6.65007 14.8554 6.46787 14.7712 6.2895C14.7262 6.192 14.7382 6.105 14.7697 6.05325L15.3517 5.09775C15.6277 4.64475 15.6172 4.03875 15.2415 3.60525C14.9805 3.303 14.697 3.02025 14.3955 2.7585C13.9612 2.3835 13.3552 2.37225 12.903 2.64825L11.9467 3.23025C11.895 3.26175 11.808 3.2745 11.7105 3.22875C11.5321 3.14482 11.3499 3.06923 11.1645 3.00225C11.0632 2.96475 11.01 2.895 10.9957 2.8365L10.7317 1.749C10.6065 1.23375 10.17 0.812252 9.59771 0.771002C9.39878 0.756876 9.1994 0.749871 8.99996 0.750002ZM8.48247 1.89375C8.82702 1.86905 9.17291 1.86905 9.51746 1.89375C9.55871 1.89675 9.61871 1.93125 9.63896 2.01375L9.90222 3.10125C10.017 3.57225 10.3717 3.91125 10.782 4.05975C10.9357 4.11525 11.0857 4.1775 11.232 4.2465C11.4363 4.34535 11.662 4.39201 11.8888 4.38233C12.1156 4.37264 12.3365 4.30691 12.5317 4.191L13.488 3.609C13.5607 3.564 13.6275 3.582 13.659 3.609C13.92 3.8355 14.1645 4.08 14.391 4.341C14.418 4.3725 14.436 4.4385 14.391 4.512L13.809 5.4675C13.6929 5.66279 13.6271 5.88381 13.6174 6.11076C13.6078 6.33772 13.6545 6.56354 13.7535 6.768C13.8225 6.91425 13.8847 7.06425 13.9395 7.218C14.088 7.62825 14.4285 7.983 14.898 8.097L15.9855 8.36175C16.0687 8.38125 16.1032 8.44125 16.1062 8.4825C16.1309 8.82706 16.1309 9.17294 16.1062 9.5175C16.1032 9.55875 16.0687 9.61875 15.9862 9.639L14.8987 9.90225C14.6787 9.95835 14.4761 10.0681 14.3088 10.2216C14.1416 10.3751 14.0149 10.5676 13.9402 10.782C13.8848 10.9349 13.8222 11.085 13.7527 11.232C13.654 11.4364 13.6074 11.6621 13.6173 11.889C13.6271 12.1158 13.6929 12.3366 13.809 12.5318L14.391 13.488C14.436 13.5608 14.418 13.6275 14.391 13.659C14.1649 13.9203 13.9203 14.165 13.659 14.391C13.6275 14.418 13.5615 14.436 13.488 14.391L12.5317 13.809C12.3365 13.6931 12.1156 13.6274 11.8888 13.6177C11.662 13.608 11.4363 13.6547 11.232 13.7535C11.085 13.8225 10.9348 13.8846 10.782 13.9395C10.5677 14.0143 10.3753 14.141 10.222 14.3082C10.0686 14.4755 9.95899 14.6781 9.90296 14.898L9.63822 15.9855C9.61872 16.0688 9.55871 16.1033 9.51746 16.1063C9.17291 16.1309 8.82702 16.1309 8.48247 16.1063C8.44122 16.1033 8.38121 16.0688 8.36096 15.9863L8.09771 14.8988C8.04162 14.6788 7.93192 14.4761 7.7784 14.3088C7.62489 14.1416 7.43235 14.015 7.21796 13.9403C7.06511 13.8848 6.91495 13.8223 6.76796 13.7528C6.56344 13.6539 6.33759 13.6073 6.11063 13.6171C5.88367 13.6269 5.66269 13.6928 5.46746 13.809L4.51197 14.391C4.43922 14.436 4.37247 14.418 4.34097 14.391C4.07965 14.165 3.83501 13.9203 3.60897 13.659C3.58197 13.6275 3.56397 13.5615 3.60897 13.488L4.19096 12.5318C4.30687 12.3366 4.3726 12.1157 4.38229 11.8889C4.39197 11.6621 4.34531 11.4364 4.24647 11.232C4.17723 11.085 4.11492 10.9348 4.05972 10.782C3.98498 10.5678 3.85841 10.3755 3.6913 10.2221C3.52419 10.0688 3.32173 9.95914 3.10197 9.903L2.01447 9.63825C1.93122 9.61875 1.89672 9.55875 1.89372 9.5175C1.86901 9.17294 1.86901 8.82706 1.89372 8.4825C1.89672 8.44125 1.93122 8.38125 2.01372 8.361L3.10122 8.09775C3.3212 8.04166 3.52387 7.93195 3.69112 7.77844C3.85838 7.62493 3.98501 7.43238 4.05972 7.218C4.11492 7.06517 4.17724 6.91501 4.24647 6.768C4.34544 6.56354 4.39218 6.33772 4.38249 6.11076C4.37281 5.88381 4.307 5.66279 4.19096 5.4675L3.60897 4.512C3.56397 4.43925 3.58197 4.3725 3.60897 4.341C3.83547 4.08 4.07997 3.8355 4.34097 3.609C4.37247 3.582 4.43847 3.564 4.51197 3.609L5.46746 4.191C5.66276 4.30704 5.88377 4.37284 6.11073 4.38253C6.33768 4.39221 6.5635 4.34548 6.76796 4.2465C6.91497 4.17727 7.06514 4.11495 7.21796 4.05975C7.43212 3.98501 7.62445 3.85845 7.77782 3.69134C7.93119 3.52423 8.04083 3.32177 8.09696 3.102L8.36171 2.0145C8.38121 1.93125 8.44122 1.89675 8.48247 1.89375Z" fill="#F53030"/>
<path fill-rule="evenodd" clip-rule="evenodd" d="M8.99996 0.750002C8.79896 0.750002 8.59946 0.757502 8.40222 0.771002C7.82997 0.812252 7.39346 1.23375 7.26821 1.749L7.00421 2.8365C6.98921 2.895 6.93671 2.9655 6.83546 3.0015C6.65003 3.06871 6.46783 3.14455 6.28946 3.22875C6.19196 3.27375 6.10497 3.26175 6.05322 3.23025L5.09771 2.64825C4.64471 2.37225 4.03872 2.38275 3.60522 2.7585C3.30297 3.0195 3.02022 3.303 2.75847 3.6045C2.38347 4.03875 2.37222 4.64475 2.64822 5.097L3.23022 6.05325C3.26172 6.105 3.27447 6.192 3.22872 6.2895C3.14472 6.46725 3.06897 6.6495 3.00222 6.8355C2.96472 6.93675 2.89497 6.99 2.83647 7.00425L1.74897 7.26825C1.23372 7.3935 0.812216 7.83 0.770966 8.40225C0.742442 8.80024 0.742442 9.19976 0.770966 9.59775C0.812216 10.17 1.23372 10.6065 1.74897 10.7318L2.83647 10.9958C2.89497 11.0108 2.96547 11.0633 3.00147 11.1645C3.06897 11.3505 3.14472 11.5328 3.22872 11.7113C3.27372 11.808 3.26172 11.895 3.23022 11.9468L2.64822 12.9023C2.37222 13.3553 2.38272 13.9613 2.75847 14.3948C3.01947 14.697 3.30297 14.9798 3.60447 15.2415C4.03872 15.6165 4.64472 15.6278 5.09697 15.3518L6.05322 14.7698C6.10497 14.7383 6.19196 14.7255 6.28946 14.7713C6.46721 14.8553 6.64946 14.931 6.83546 14.9978C6.93671 15.0353 6.98996 15.105 7.00421 15.1635L7.26821 16.251C7.39346 16.7663 7.82997 17.1878 8.40222 17.2283C8.8002 17.2568 9.19973 17.2568 9.59771 17.2283C10.17 17.1878 10.6065 16.7663 10.7317 16.251L10.9957 15.1635C11.0107 15.105 11.0632 15.0345 11.1645 14.9985C11.3505 14.931 11.5327 14.8553 11.7112 14.7713C11.808 14.7263 11.895 14.7383 11.9467 14.7698L12.9022 15.3518C13.3552 15.6278 13.9612 15.6173 14.3947 15.2415C14.697 14.9805 14.9797 14.697 15.2415 14.3955C15.6165 13.9613 15.6277 13.3553 15.3517 12.903L14.7697 11.9468C14.7382 11.895 14.7255 11.808 14.7712 11.7105C14.8552 11.5328 14.931 11.3505 14.9977 11.1645C15.0352 11.0633 15.105 11.01 15.1635 10.9958L16.251 10.7318C16.7662 10.6065 17.1877 10.17 17.2282 9.59775C17.2568 9.19976 17.2568 8.80024 17.2282 8.40225C17.1877 7.83 16.7662 7.3935 16.251 7.26825L15.1635 7.00425C15.105 6.98925 15.0345 6.93675 14.9985 6.8355C14.9312 6.65007 14.8554 6.46787 14.7712 6.2895C14.7262 6.192 14.7382 6.105 14.7697 6.05325L15.3517 5.09775C15.6277 4.64475 15.6172 4.03875 15.2415 3.60525C14.9805 3.303 14.697 3.02025 14.3955 2.7585C13.9612 2.3835 13.3552 2.37225 12.903 2.64825L11.9467 3.23025C11.895 3.26175 11.808 3.2745 11.7105 3.22875C11.5321 3.14482 11.3499 3.06923 11.1645 3.00225C11.0632 2.96475 11.01 2.895 10.9957 2.8365L10.7317 1.749C10.6065 1.23375 10.17 0.812252 9.59771 0.771002C9.39878 0.756876 9.1994 0.749871 8.99996 0.750002ZM8.48247 1.89375C8.82702 1.86905 9.17291 1.86905 9.51746 1.89375C9.55871 1.89675 9.61871 1.93125 9.63896 2.01375L9.90222 3.10125C10.017 3.57225 10.3717 3.91125 10.782 4.05975C10.9357 4.11525 11.0857 4.1775 11.232 4.2465C11.4363 4.34535 11.662 4.39201 11.8888 4.38233C12.1156 4.37264 12.3365 4.30691 12.5317 4.191L13.488 3.609C13.5607 3.564 13.6275 3.582 13.659 3.609C13.92 3.8355 14.1645 4.08 14.391 4.341C14.418 4.3725 14.436 4.4385 14.391 4.512L13.809 5.4675C13.6929 5.66279 13.6271 5.88381 13.6174 6.11076C13.6078 6.33772 13.6545 6.56354 13.7535 6.768C13.8225 6.91425 13.8847 7.06425 13.9395 7.218C14.088 7.62825 14.4285 7.983 14.898 8.097L15.9855 8.36175C16.0687 8.38125 16.1032 8.44125 16.1062 8.4825C16.1309 8.82706 16.1309 9.17294 16.1062 9.5175C16.1032 9.55875 16.0687 9.61875 15.9862 9.639L14.8987 9.90225C14.6787 9.95835 14.4761 10.0681 14.3088 10.2216C14.1416 10.3751 14.0149 10.5676 13.9402 10.782C13.8848 10.9349 13.8222 11.085 13.7527 11.232C13.654 11.4364 13.6074 11.6621 13.6173 11.889C13.6271 12.1158 13.6929 12.3366 13.809 12.5318L14.391 13.488C14.436 13.5608 14.418 13.6275 14.391 13.659C14.1649 13.9203 13.9203 14.165 13.659 14.391C13.6275 14.418 13.5615 14.436 13.488 14.391L12.5317 13.809C12.3365 13.6931 12.1156 13.6274 11.8888 13.6177C11.662 13.608 11.4363 13.6547 11.232 13.7535C11.085 13.8225 10.9348 13.8846 10.782 13.9395C10.5677 14.0143 10.3753 14.141 10.222 14.3082C10.0686 14.4755 9.95899 14.6781 9.90296 14.898L9.63822 15.9855C9.61872 16.0688 9.55871 16.1033 9.51746 16.1063C9.17291 16.1309 8.82702 16.1309 8.48247 16.1063C8.44122 16.1033 8.38121 16.0688 8.36096 15.9863L8.09771 14.8988C8.04162 14.6788 7.93192 14.4761 7.7784 14.3088C7.62489 14.1416 7.43235 14.015 7.21796 13.9403C7.06511 13.8848 6.91495 13.8223 6.76796 13.7528C6.56344 13.6539 6.33759 13.6073 6.11063 13.6171C5.88367 13.6269 5.66269 13.6928 5.46746 13.809L4.51197 14.391C4.43922 14.436 4.37247 14.418 4.34097 14.391C4.07965 14.165 3.83501 13.9203 3.60897 13.659C3.58197 13.6275 3.56397 13.5615 3.60897 13.488L4.19096 12.5318C4.30687 12.3366 4.3726 12.1157 4.38229 11.8889C4.39197 11.6621 4.34531 11.4364 4.24647 11.232C4.17723 11.085 4.11492 10.9348 4.05972 10.782C3.98498 10.5678 3.85841 10.3755 3.6913 10.2221C3.52419 10.0688 3.32173 9.95914 3.10197 9.903L2.01447 9.63825C1.93122 9.61875 1.89672 9.55875 1.89372 9.5175C1.86901 9.17294 1.86901 8.82706 1.89372 8.4825C1.89672 8.44125 1.93122 8.38125 2.01372 8.361L3.10122 8.09775C3.3212 8.04166 3.52387 7.93195 3.69112 7.77844C3.85838 7.62493 3.98501 7.43238 4.05972 7.218C4.11492 7.06517 4.17724 6.91501 4.24647 6.768C4.34544 6.56354 4.39218 6.33772 4.38249 6.11076C4.37281 5.88381 4.307 5.66279 4.19096 5.4675L3.60897 4.512C3.56397 4.43925 3.58197 4.3725 3.60897 4.341C3.83547 4.08 4.07997 3.8355 4.34097 3.609C4.37247 3.582 4.43847 3.564 4.51197 3.609L5.46746 4.191C5.66276 4.30704 5.88377 4.37284 6.11073 4.38253C6.33768 4.39221 6.5635 4.34548 6.76796 4.2465C6.91497 4.17727 7.06514 4.11495 7.21796 4.05975C7.43212 3.98501 7.62445 3.85845 7.77782 3.69134C7.93119 3.52423 8.04083 3.32177 8.09696 3.102L8.36171 2.0145C8.38121 1.93125 8.44122 1.89675 8.48247 1.89375Z" stroke="#F53030" stroke-width="0.2" mask="url(#path-2-outside-1)"/>
</svg>
