<svg width="26" height="20" viewBox="0 0 26 20" fill="none" xmlns="http://www.w3.org/2000/svg">
<path d="M16.6667 1.44443V3.88887M16.6667 8.77776V11.2222M16.6667 16.1111V18.5555M4.44444 1.44443C3.79614 1.44443 3.17438 1.70197 2.71596 2.16039C2.25754 2.61881 2 3.24057 2 3.88887V7.55554C2.64831 7.55554 3.27006 7.81308 3.72848 8.2715C4.18691 8.72992 4.44444 9.35168 4.44444 9.99998C4.44444 10.6483 4.18691 11.27 3.72848 11.7285C3.27006 12.1869 2.64831 12.4444 2 12.4444V16.1111C2 16.7594 2.25754 17.3812 2.71596 17.8396C3.17438 18.298 3.79614 18.5555 4.44444 18.5555H21.5556C22.2039 18.5555 22.8256 18.298 23.284 17.8396C23.7425 17.3812 24 16.7594 24 16.1111V12.4444C23.3517 12.4444 22.7299 12.1869 22.2715 11.7285C21.8131 11.27 21.5556 10.6483 21.5556 9.99998C21.5556 9.35168 21.8131 8.72992 22.2715 8.2715C22.7299 7.81308 23.3517 7.55554 24 7.55554V3.88887C24 3.24057 23.7425 2.61881 23.284 2.16039C22.8256 1.70197 22.2039 1.44443 21.5556 1.44443H4.44444Z" stroke="#F53030" stroke-width="2.29167" stroke-linecap="round" stroke-linejoin="round"/>
</svg>
